<mxfile host="app.diagrams.net" modified="2024-03-20T16:05:19.346Z" agent="Mozilla/5.0 (Windows NT 10.0; Win64; x64) AppleWebKit/537.36 (KHTML, like Gecko) Chrome/122.0.0.0 Safari/537.36" etag="7KBTwpXs30kvggbwwE1k" version="24.0.7" type="github">
  <diagram name="Page-1" id="05EKed9fc9uslpwKrLf1">
    <mxGraphModel dx="1105" dy="586" grid="1" gridSize="10" guides="1" tooltips="1" connect="1" arrows="1" fold="1" page="1" pageScale="1" pageWidth="850" pageHeight="1100" math="0" shadow="0">
      <root>
        <mxCell id="0" />
        <mxCell id="1" parent="0" />
        <mxCell id="03P3eD6y3V61JHc0Wkt2-1" value="Customer" style="shape=umlActor;verticalLabelPosition=bottom;verticalAlign=top;html=1;outlineConnect=0;" vertex="1" parent="1">
          <mxGeometry x="410" y="260" width="30" height="60" as="geometry" />
        </mxCell>
        <mxCell id="03P3eD6y3V61JHc0Wkt2-3" value="" style="endArrow=classic;html=1;rounded=0;" edge="1" parent="1">
          <mxGeometry width="50" height="50" relative="1" as="geometry">
            <mxPoint x="440" y="300.01" as="sourcePoint" />
            <mxPoint x="648.0288648370831" y="219.99889813958328" as="targetPoint" />
          </mxGeometry>
        </mxCell>
        <mxCell id="03P3eD6y3V61JHc0Wkt2-4" value="Đăng ký" style="ellipse;whiteSpace=wrap;html=1;" vertex="1" parent="1">
          <mxGeometry x="640" y="170" width="90" height="60" as="geometry" />
        </mxCell>
        <mxCell id="03P3eD6y3V61JHc0Wkt2-5" value="Đăng nhập" style="ellipse;whiteSpace=wrap;html=1;" vertex="1" parent="1">
          <mxGeometry x="660" y="290" width="100" height="60" as="geometry" />
        </mxCell>
        <mxCell id="03P3eD6y3V61JHc0Wkt2-6" value="&lt;div style=&quot;text-align: center;&quot;&gt;&lt;font face=&quot;Times New Roman, Times New Roman_EmbeddedFont, Times New Roman_MSFontService, serif&quot;&gt;&lt;span style=&quot;font-size: 10px; font-variant-ligatures: none; white-space-collapse: preserve; background-color: rgb(255, 255, 255);&quot;&gt;Cung c&lt;/span&gt;&lt;/font&gt;&lt;span style=&quot;background-color: initial; text-align: center; font-size: 10px; font-variant-ligatures: none; white-space-collapse: preserve;&quot;&gt;&lt;font face=&quot;Times New Roman, Times New Roman_EmbeddedFont, Times New Roman_MSFontService, serif&quot;&gt;ấp th&lt;/font&gt;&lt;/span&gt;&lt;span style=&quot;background-color: initial; font-size: 10px; font-variant-ligatures: none; white-space-collapse: preserve;&quot;&gt;&lt;font face=&quot;Times New Roman, Times New Roman_EmbeddedFont, Times New Roman_MSFontService, serif&quot;&gt;ông tin v&lt;/font&gt;&lt;/span&gt;&lt;span style=&quot;background-color: initial; font-size: 10px; font-variant-ligatures: none; white-space-collapse: preserve;&quot;&gt;&lt;font face=&quot;Times New Roman, Times New Roman_EmbeddedFont, Times New Roman_MSFontService, serif&quot;&gt;à x&lt;/font&gt;&lt;/span&gt;&lt;span style=&quot;background-color: initial; font-size: 10px; font-variant-ligatures: none; white-space-collapse: preserve;&quot;&gt;&lt;font face=&quot;Times New Roman, Times New Roman_EmbeddedFont, Times New Roman_MSFontService, serif&quot;&gt;ác th&lt;/font&gt;&lt;/span&gt;&lt;span style=&quot;background-color: initial; font-size: 10px; font-variant-ligatures: none; white-space-collapse: preserve;&quot;&gt;&lt;font face=&quot;Times New Roman, Times New Roman_EmbeddedFont, Times New Roman_MSFontService, serif&quot;&gt;ực danh t&lt;/font&gt;&lt;/span&gt;&lt;span style=&quot;background-color: initial; font-size: 10px; font-variant-ligatures: none; white-space-collapse: preserve;&quot;&gt;&lt;font face=&quot;Times New Roman, Times New Roman_EmbeddedFont, Times New Roman_MSFontService, serif&quot;&gt;ính&lt;/font&gt;&lt;/span&gt;&lt;/div&gt;" style="ellipse;whiteSpace=wrap;html=1;" vertex="1" parent="1">
          <mxGeometry x="660" y="420" width="122.5" height="60" as="geometry" />
        </mxCell>
        <mxCell id="03P3eD6y3V61JHc0Wkt2-7" value="Tạo dự&amp;nbsp;án" style="ellipse;whiteSpace=wrap;html=1;" vertex="1" parent="1">
          <mxGeometry x="260" y="180" width="90" height="50" as="geometry" />
        </mxCell>
        <mxCell id="03P3eD6y3V61JHc0Wkt2-8" value="Sửa dự&amp;nbsp;án" style="ellipse;whiteSpace=wrap;html=1;" vertex="1" parent="1">
          <mxGeometry x="270" y="80" width="80" height="50" as="geometry" />
        </mxCell>
        <mxCell id="03P3eD6y3V61JHc0Wkt2-9" value="" style="endArrow=classic;html=1;rounded=0;entryX=0;entryY=0.667;entryDx=0;entryDy=0;entryPerimeter=0;" edge="1" parent="1" target="03P3eD6y3V61JHc0Wkt2-5">
          <mxGeometry width="50" height="50" relative="1" as="geometry">
            <mxPoint x="440" y="300" as="sourcePoint" />
            <mxPoint x="520" y="280" as="targetPoint" />
          </mxGeometry>
        </mxCell>
        <mxCell id="03P3eD6y3V61JHc0Wkt2-11" value="" style="endArrow=classic;html=1;rounded=0;entryX=0.435;entryY=0.012;entryDx=0;entryDy=0;entryPerimeter=0;exitX=0.644;exitY=0.946;exitDx=0;exitDy=0;exitPerimeter=0;dashed=1;" edge="1" parent="1" source="03P3eD6y3V61JHc0Wkt2-4" target="03P3eD6y3V61JHc0Wkt2-5">
          <mxGeometry width="50" height="50" relative="1" as="geometry">
            <mxPoint x="650" y="285" as="sourcePoint" />
            <mxPoint x="700" y="235" as="targetPoint" />
          </mxGeometry>
        </mxCell>
        <mxCell id="03P3eD6y3V61JHc0Wkt2-12" value="&amp;lt;&amp;lt;extend&lt;span style=&quot;background-color: initial;&quot;&gt;&amp;gt;&amp;gt;&lt;/span&gt;" style="text;html=1;align=center;verticalAlign=middle;resizable=0;points=[];autosize=1;strokeColor=none;fillColor=none;" vertex="1" parent="1">
          <mxGeometry x="685" y="230" width="90" height="30" as="geometry" />
        </mxCell>
        <mxCell id="03P3eD6y3V61JHc0Wkt2-13" value="" style="endArrow=classic;html=1;rounded=0;entryX=0;entryY=0.333;entryDx=0;entryDy=0;entryPerimeter=0;" edge="1" parent="1" target="03P3eD6y3V61JHc0Wkt2-6">
          <mxGeometry width="50" height="50" relative="1" as="geometry">
            <mxPoint x="440" y="300" as="sourcePoint" />
            <mxPoint x="540" y="310" as="targetPoint" />
          </mxGeometry>
        </mxCell>
        <mxCell id="03P3eD6y3V61JHc0Wkt2-14" value="" style="endArrow=classic;html=1;rounded=0;exitX=0.418;exitY=-0.006;exitDx=0;exitDy=0;exitPerimeter=0;dashed=1;" edge="1" parent="1" source="03P3eD6y3V61JHc0Wkt2-6">
          <mxGeometry width="50" height="50" relative="1" as="geometry">
            <mxPoint x="710" y="410" as="sourcePoint" />
            <mxPoint x="710" y="350" as="targetPoint" />
          </mxGeometry>
        </mxCell>
        <mxCell id="03P3eD6y3V61JHc0Wkt2-15" value="&amp;lt;&amp;lt;extend&lt;span style=&quot;background-color: initial;&quot;&gt;&amp;gt;&amp;gt;&lt;/span&gt;" style="text;html=1;align=center;verticalAlign=middle;resizable=0;points=[];autosize=1;strokeColor=none;fillColor=none;" vertex="1" parent="1">
          <mxGeometry x="700" y="370" width="90" height="30" as="geometry" />
        </mxCell>
        <mxCell id="03P3eD6y3V61JHc0Wkt2-16" value="" style="endArrow=classic;html=1;rounded=0;entryX=0.99;entryY=0.687;entryDx=0;entryDy=0;entryPerimeter=0;exitX=0;exitY=0.3333333333333333;exitDx=0;exitDy=0;exitPerimeter=0;" edge="1" parent="1" source="03P3eD6y3V61JHc0Wkt2-1" target="03P3eD6y3V61JHc0Wkt2-7">
          <mxGeometry width="50" height="50" relative="1" as="geometry">
            <mxPoint x="370" y="250" as="sourcePoint" />
            <mxPoint x="420" y="200" as="targetPoint" />
          </mxGeometry>
        </mxCell>
        <mxCell id="03P3eD6y3V61JHc0Wkt2-17" value="" style="endArrow=classic;html=1;rounded=0;entryX=0.556;entryY=0;entryDx=0;entryDy=0;entryPerimeter=0;exitX=0.5;exitY=1;exitDx=0;exitDy=0;dashed=1;dashPattern=12 12;" edge="1" parent="1" source="03P3eD6y3V61JHc0Wkt2-8" target="03P3eD6y3V61JHc0Wkt2-7">
          <mxGeometry width="50" height="50" relative="1" as="geometry">
            <mxPoint x="300" y="180" as="sourcePoint" />
            <mxPoint x="350" y="130" as="targetPoint" />
          </mxGeometry>
        </mxCell>
        <mxCell id="03P3eD6y3V61JHc0Wkt2-18" value="&amp;lt;&amp;lt;extend&lt;span style=&quot;background-color: initial; font-size: 9px;&quot;&gt;&amp;gt;&amp;gt;&lt;/span&gt;" style="text;html=1;align=center;verticalAlign=middle;resizable=0;points=[];autosize=1;strokeColor=none;fillColor=none;fontSize=9;" vertex="1" parent="1">
          <mxGeometry x="300" y="145" width="70" height="20" as="geometry" />
        </mxCell>
        <mxCell id="03P3eD6y3V61JHc0Wkt2-19" value="Tìm kiếm freelance" style="ellipse;whiteSpace=wrap;html=1;" vertex="1" parent="1">
          <mxGeometry x="480" y="90" width="100" height="40" as="geometry" />
        </mxCell>
        <mxCell id="03P3eD6y3V61JHc0Wkt2-20" value="" style="endArrow=classic;html=1;rounded=0;" edge="1" parent="1" source="03P3eD6y3V61JHc0Wkt2-1" target="03P3eD6y3V61JHc0Wkt2-19">
          <mxGeometry width="50" height="50" relative="1" as="geometry">
            <mxPoint x="330" y="370" as="sourcePoint" />
            <mxPoint x="380" y="320" as="targetPoint" />
          </mxGeometry>
        </mxCell>
        <mxCell id="03P3eD6y3V61JHc0Wkt2-21" value="" style="endArrow=classic;html=1;rounded=0;entryX=0.966;entryY=0.228;entryDx=0;entryDy=0;entryPerimeter=0;exitX=-0.04;exitY=0.57;exitDx=0;exitDy=0;dashed=1;dashPattern=12 12;exitPerimeter=0;" edge="1" parent="1" source="03P3eD6y3V61JHc0Wkt2-19" target="03P3eD6y3V61JHc0Wkt2-7">
          <mxGeometry width="50" height="50" relative="1" as="geometry">
            <mxPoint x="300" y="360" as="sourcePoint" />
            <mxPoint x="350" y="310" as="targetPoint" />
          </mxGeometry>
        </mxCell>
        <mxCell id="03P3eD6y3V61JHc0Wkt2-22" value="&amp;lt;&amp;lt;extend&amp;gt;&amp;gt;" style="text;html=1;align=center;verticalAlign=middle;resizable=0;points=[];autosize=1;strokeColor=none;fillColor=none;fontSize=10;" vertex="1" parent="1">
          <mxGeometry x="400" y="140" width="80" height="30" as="geometry" />
        </mxCell>
        <mxCell id="03P3eD6y3V61JHc0Wkt2-23" value="Tạo auction" style="ellipse;whiteSpace=wrap;html=1;" vertex="1" parent="1">
          <mxGeometry x="70" y="130" width="100" height="50" as="geometry" />
        </mxCell>
        <mxCell id="03P3eD6y3V61JHc0Wkt2-24" value="" style="endArrow=classic;html=1;rounded=0;entryX=-0.041;entryY=0.388;entryDx=0;entryDy=0;entryPerimeter=0;dashed=1;dashPattern=12 12;" edge="1" parent="1" source="03P3eD6y3V61JHc0Wkt2-23" target="03P3eD6y3V61JHc0Wkt2-7">
          <mxGeometry width="50" height="50" relative="1" as="geometry">
            <mxPoint x="170" y="200" as="sourcePoint" />
            <mxPoint x="220" y="150" as="targetPoint" />
          </mxGeometry>
        </mxCell>
        <mxCell id="03P3eD6y3V61JHc0Wkt2-25" value="&amp;lt;&amp;lt;extend&amp;gt;&amp;gt;" style="text;html=1;align=center;verticalAlign=middle;resizable=0;points=[];autosize=1;strokeColor=none;fillColor=none;fontSize=10;" vertex="1" parent="1">
          <mxGeometry x="170" y="158" width="80" height="30" as="geometry" />
        </mxCell>
        <mxCell id="03P3eD6y3V61JHc0Wkt2-26" value="Chat" style="ellipse;whiteSpace=wrap;html=1;" vertex="1" parent="1">
          <mxGeometry x="280" y="355" width="90" height="60" as="geometry" />
        </mxCell>
        <mxCell id="03P3eD6y3V61JHc0Wkt2-28" value="Chọn freelancer" style="ellipse;whiteSpace=wrap;html=1;" vertex="1" parent="1">
          <mxGeometry x="75" y="278" width="90" height="50" as="geometry" />
        </mxCell>
        <mxCell id="03P3eD6y3V61JHc0Wkt2-29" value="" style="endArrow=classic;html=1;rounded=0;entryX=1;entryY=0;entryDx=0;entryDy=0;dashed=1;dashPattern=12 12;" edge="1" parent="1" source="03P3eD6y3V61JHc0Wkt2-7" target="03P3eD6y3V61JHc0Wkt2-28">
          <mxGeometry width="50" height="50" relative="1" as="geometry">
            <mxPoint x="310" y="260" as="sourcePoint" />
            <mxPoint x="360" y="210" as="targetPoint" />
          </mxGeometry>
        </mxCell>
        <mxCell id="03P3eD6y3V61JHc0Wkt2-30" value="&amp;lt;&amp;lt;include&lt;span style=&quot;background-color: initial; font-size: 10px;&quot;&gt;&amp;gt;&amp;gt;&lt;/span&gt;" style="text;html=1;align=center;verticalAlign=middle;resizable=0;points=[];autosize=1;strokeColor=none;fillColor=none;fontSize=10;" vertex="1" parent="1">
          <mxGeometry x="180" y="250" width="80" height="30" as="geometry" />
        </mxCell>
        <mxCell id="03P3eD6y3V61JHc0Wkt2-31" value="Hủy dự&amp;nbsp;án" style="ellipse;whiteSpace=wrap;html=1;" vertex="1" parent="1">
          <mxGeometry x="105" y="20" width="80" height="50" as="geometry" />
        </mxCell>
        <mxCell id="03P3eD6y3V61JHc0Wkt2-32" value="" style="endArrow=classic;html=1;rounded=0;exitX=0.977;exitY=0.772;exitDx=0;exitDy=0;dashed=1;exitPerimeter=0;" edge="1" parent="1" source="03P3eD6y3V61JHc0Wkt2-31" target="03P3eD6y3V61JHc0Wkt2-8">
          <mxGeometry width="50" height="50" relative="1" as="geometry">
            <mxPoint x="340" y="110" as="sourcePoint" />
            <mxPoint x="380" y="130" as="targetPoint" />
          </mxGeometry>
        </mxCell>
        <mxCell id="03P3eD6y3V61JHc0Wkt2-33" value="&amp;lt;&amp;lt;extend&amp;gt;&amp;gt;" style="text;html=1;align=center;verticalAlign=middle;resizable=0;points=[];autosize=1;strokeColor=none;fillColor=none;fontSize=10;" vertex="1" parent="1">
          <mxGeometry x="190" y="40" width="80" height="30" as="geometry" />
        </mxCell>
        <mxCell id="03P3eD6y3V61JHc0Wkt2-34" value="" style="endArrow=classic;html=1;rounded=0;entryX=0.408;entryY=-0.047;entryDx=0;entryDy=0;entryPerimeter=0;exitX=0.5;exitY=1;exitDx=0;exitDy=0;dashed=1;dashPattern=12 12;" edge="1" parent="1" source="03P3eD6y3V61JHc0Wkt2-23" target="03P3eD6y3V61JHc0Wkt2-28">
          <mxGeometry width="50" height="50" relative="1" as="geometry">
            <mxPoint x="75" y="230" as="sourcePoint" />
            <mxPoint x="125" y="180" as="targetPoint" />
          </mxGeometry>
        </mxCell>
        <mxCell id="03P3eD6y3V61JHc0Wkt2-35" value="&amp;lt;&amp;lt;include&amp;gt;&amp;gt;" style="text;html=1;align=center;verticalAlign=middle;resizable=0;points=[];autosize=1;strokeColor=none;fillColor=none;fontSize=10;" vertex="1" parent="1">
          <mxGeometry x="60" y="200" width="80" height="30" as="geometry" />
        </mxCell>
        <mxCell id="03P3eD6y3V61JHc0Wkt2-36" value="Gửi tiền vào ký quý" style="ellipse;whiteSpace=wrap;html=1;" vertex="1" parent="1">
          <mxGeometry x="90" y="550" width="100" height="50" as="geometry" />
        </mxCell>
        <mxCell id="03P3eD6y3V61JHc0Wkt2-37" value="" style="endArrow=classic;html=1;rounded=0;exitX=0.5;exitY=1;exitDx=0;exitDy=0;dashed=1;dashPattern=8 8;" edge="1" parent="1" source="03P3eD6y3V61JHc0Wkt2-28" target="03P3eD6y3V61JHc0Wkt2-39">
          <mxGeometry width="50" height="50" relative="1" as="geometry">
            <mxPoint x="80" y="360" as="sourcePoint" />
            <mxPoint x="130" y="310" as="targetPoint" />
          </mxGeometry>
        </mxCell>
        <mxCell id="03P3eD6y3V61JHc0Wkt2-38" value="&amp;lt;&amp;lt;include&amp;gt;&amp;gt;" style="text;html=1;align=center;verticalAlign=middle;resizable=0;points=[];autosize=1;strokeColor=none;fillColor=none;fontSize=10;" vertex="1" parent="1">
          <mxGeometry x="140" y="355" width="80" height="30" as="geometry" />
        </mxCell>
        <mxCell id="03P3eD6y3V61JHc0Wkt2-39" value="Tạo hợp&amp;nbsp;đồng" style="ellipse;whiteSpace=wrap;html=1;" vertex="1" parent="1">
          <mxGeometry x="200" y="440" width="100" height="40" as="geometry" />
        </mxCell>
        <mxCell id="03P3eD6y3V61JHc0Wkt2-40" value="" style="endArrow=classic;html=1;rounded=0;exitX=0;exitY=0.5;exitDx=0;exitDy=0;dashed=1;dashPattern=8 8;" edge="1" parent="1" source="03P3eD6y3V61JHc0Wkt2-26" target="03P3eD6y3V61JHc0Wkt2-39">
          <mxGeometry width="50" height="50" relative="1" as="geometry">
            <mxPoint x="330" y="480" as="sourcePoint" />
            <mxPoint x="380" y="430" as="targetPoint" />
          </mxGeometry>
        </mxCell>
        <mxCell id="03P3eD6y3V61JHc0Wkt2-41" value="&amp;lt;&amp;lt;extend&amp;gt;&amp;gt;" style="text;html=1;align=center;verticalAlign=middle;resizable=0;points=[];autosize=1;strokeColor=none;fillColor=none;fontSize=10;" vertex="1" parent="1">
          <mxGeometry x="250" y="410" width="80" height="30" as="geometry" />
        </mxCell>
        <mxCell id="03P3eD6y3V61JHc0Wkt2-43" value="" style="endArrow=classic;html=1;rounded=0;dashed=1;dashPattern=12 12;exitX=0.079;exitY=0.864;exitDx=0;exitDy=0;exitPerimeter=0;" edge="1" parent="1" source="03P3eD6y3V61JHc0Wkt2-39" target="03P3eD6y3V61JHc0Wkt2-36">
          <mxGeometry width="50" height="50" relative="1" as="geometry">
            <mxPoint x="300" y="510" as="sourcePoint" />
            <mxPoint x="350" y="460" as="targetPoint" />
          </mxGeometry>
        </mxCell>
        <mxCell id="03P3eD6y3V61JHc0Wkt2-44" value="&amp;lt;&amp;lt;include&amp;gt;&amp;gt;" style="text;html=1;align=center;verticalAlign=middle;resizable=0;points=[];autosize=1;strokeColor=none;fillColor=none;" vertex="1" parent="1">
          <mxGeometry x="130" y="510" width="90" height="30" as="geometry" />
        </mxCell>
        <mxCell id="03P3eD6y3V61JHc0Wkt2-45" value="" style="endArrow=classic;html=1;rounded=0;" edge="1" parent="1" source="03P3eD6y3V61JHc0Wkt2-1">
          <mxGeometry width="50" height="50" relative="1" as="geometry">
            <mxPoint x="400" y="310" as="sourcePoint" />
            <mxPoint x="340" y="350" as="targetPoint" />
          </mxGeometry>
        </mxCell>
        <mxCell id="03P3eD6y3V61JHc0Wkt2-47" value="Theo dõi tiến&amp;nbsp;độ" style="ellipse;whiteSpace=wrap;html=1;" vertex="1" parent="1">
          <mxGeometry x="530" y="450" width="120" height="50" as="geometry" />
        </mxCell>
        <mxCell id="03P3eD6y3V61JHc0Wkt2-48" value="" style="endArrow=classic;html=1;rounded=0;entryX=0.271;entryY=0.038;entryDx=0;entryDy=0;entryPerimeter=0;exitX=1;exitY=1;exitDx=0;exitDy=0;exitPerimeter=0;" edge="1" parent="1" source="03P3eD6y3V61JHc0Wkt2-1" target="03P3eD6y3V61JHc0Wkt2-47">
          <mxGeometry width="50" height="50" relative="1" as="geometry">
            <mxPoint x="420" y="320" as="sourcePoint" />
            <mxPoint x="470" y="290" as="targetPoint" />
          </mxGeometry>
        </mxCell>
        <mxCell id="03P3eD6y3V61JHc0Wkt2-49" value="Đánh giá freelancer" style="ellipse;whiteSpace=wrap;html=1;" vertex="1" parent="1">
          <mxGeometry x="520" y="588" width="120" height="80" as="geometry" />
        </mxCell>
        <mxCell id="03P3eD6y3V61JHc0Wkt2-50" value="Giải ngân" style="ellipse;whiteSpace=wrap;html=1;" vertex="1" parent="1">
          <mxGeometry x="410" y="470" width="120" height="70" as="geometry" />
        </mxCell>
        <mxCell id="03P3eD6y3V61JHc0Wkt2-51" value="" style="endArrow=classic;html=1;rounded=0;entryX=1;entryY=0.5;entryDx=0;entryDy=0;dashed=1;dashPattern=8 8;" edge="1" parent="1" target="03P3eD6y3V61JHc0Wkt2-55">
          <mxGeometry width="50" height="50" relative="1" as="geometry">
            <mxPoint x="540" y="600" as="sourcePoint" />
            <mxPoint x="590" y="550" as="targetPoint" />
          </mxGeometry>
        </mxCell>
        <mxCell id="03P3eD6y3V61JHc0Wkt2-52" value="&amp;lt;&amp;lt;extend&amp;gt;&amp;gt;" style="text;html=1;align=center;verticalAlign=middle;resizable=0;points=[];autosize=1;strokeColor=none;fillColor=none;" vertex="1" parent="1">
          <mxGeometry x="410" y="588" width="90" height="30" as="geometry" />
        </mxCell>
        <mxCell id="03P3eD6y3V61JHc0Wkt2-54" value="" style="endArrow=classic;html=1;rounded=0;entryX=0.318;entryY=-0.021;entryDx=0;entryDy=0;entryPerimeter=0;" edge="1" parent="1" source="03P3eD6y3V61JHc0Wkt2-1" target="03P3eD6y3V61JHc0Wkt2-50">
          <mxGeometry width="50" height="50" relative="1" as="geometry">
            <mxPoint x="420" y="550" as="sourcePoint" />
            <mxPoint x="470" y="500" as="targetPoint" />
          </mxGeometry>
        </mxCell>
        <mxCell id="03P3eD6y3V61JHc0Wkt2-55" value="Xác nhận kết thúc hợp&amp;nbsp;đồng" style="ellipse;whiteSpace=wrap;html=1;" vertex="1" parent="1">
          <mxGeometry x="270" y="580" width="120" height="80" as="geometry" />
        </mxCell>
        <mxCell id="03P3eD6y3V61JHc0Wkt2-56" value="" style="endArrow=classic;html=1;rounded=0;entryX=0.387;entryY=0.02;entryDx=0;entryDy=0;entryPerimeter=0;exitX=0.6;exitY=1;exitDx=0;exitDy=0;exitPerimeter=0;dashed=1;dashPattern=8 8;" edge="1" parent="1" source="03P3eD6y3V61JHc0Wkt2-39" target="03P3eD6y3V61JHc0Wkt2-55">
          <mxGeometry width="50" height="50" relative="1" as="geometry">
            <mxPoint x="305" y="485" as="sourcePoint" />
            <mxPoint x="355" y="435" as="targetPoint" />
          </mxGeometry>
        </mxCell>
        <mxCell id="03P3eD6y3V61JHc0Wkt2-57" value="&amp;lt;&amp;lt;include&amp;gt;&amp;gt;" style="text;html=1;align=center;verticalAlign=middle;resizable=0;points=[];autosize=1;strokeColor=none;fillColor=none;" vertex="1" parent="1">
          <mxGeometry x="265" y="518" width="90" height="30" as="geometry" />
        </mxCell>
        <mxCell id="03P3eD6y3V61JHc0Wkt2-58" value="" style="endArrow=classic;html=1;rounded=0;exitX=0;exitY=1;exitDx=0;exitDy=0;exitPerimeter=0;entryX=0.563;entryY=-0.033;entryDx=0;entryDy=0;entryPerimeter=0;" edge="1" parent="1" source="03P3eD6y3V61JHc0Wkt2-1" target="03P3eD6y3V61JHc0Wkt2-55">
          <mxGeometry width="50" height="50" relative="1" as="geometry">
            <mxPoint x="420" y="450" as="sourcePoint" />
            <mxPoint x="470" y="400" as="targetPoint" />
          </mxGeometry>
        </mxCell>
      </root>
    </mxGraphModel>
  </diagram>
</mxfile>
